<svg viewBox="0 0 75 26" fill="none" xmlns="http://www.w3.org/2000/svg">
<path d="M0.000557277 17.6759V1.28415C0.000557277 1.0995 0.05955 0.948424 0.177535 0.83092C0.295521 0.713416 0.438789 0.654664 0.60734 0.654664H11.58C11.7654 0.654664 11.9171 0.713416 12.0351 0.83092C12.1531 0.948424 12.2121 1.0995 12.2121 1.28415V3.04671C12.2121 3.23136 12.1531 3.38243 12.0351 3.49994C11.9171 3.60066 11.7654 3.65101 11.58 3.65101H3.46427V8.4351H11.0743C11.2597 8.4351 11.4114 8.49385 11.5294 8.61136C11.6474 8.72886 11.7064 8.87994 11.7064 9.06459V10.8271C11.7064 10.995 11.6474 11.1377 11.5294 11.2552C11.4114 11.3727 11.2597 11.4315 11.0743 11.4315H3.46427V13.4574C3.46427 14.5347 0.000557277 18.7626 0.000557277 17.6759Z" fill="#343B4E"/>
<path d="M15.1037 17.6759V5.79127C15.1037 5.6234 15.1627 5.48072 15.2807 5.36321C15.3987 5.24571 15.542 5.18696 15.7105 5.18696H17.809C17.9944 5.18696 18.1377 5.24571 18.2388 5.36321C18.3568 5.48072 18.4158 5.6234 18.4158 5.79127V13.6408C18.4158 14.7142 15.1037 18.7427 15.1037 17.6759ZM15.6094 3.02153C15.424 3.02153 15.2723 2.97117 15.1543 2.87045C15.0532 2.75295 15.0026 2.60187 15.0026 2.41722V0.604306C15.0026 0.436443 15.0532 0.29376 15.1543 0.176255C15.2723 0.0587517 15.424 0 15.6094 0H17.9101C18.0955 0 18.2472 0.0587517 18.3652 0.176255C18.4832 0.29376 18.5422 0.436443 18.5422 0.604306V2.41722C18.5422 2.60187 18.4832 2.75295 18.3652 2.87045C18.2472 2.97117 18.0955 3.02153 17.9101 3.02153H15.6094Z" fill="#343B4E"/>
<path d="M21.2138 18.2803C21.0621 18.2803 20.9273 18.2299 20.8093 18.1292C20.7082 18.0117 20.6576 17.8774 20.6576 17.7263C20.6576 17.6759 20.6661 17.6172 20.6829 17.5501C20.7166 17.4829 20.7672 17.399 20.8346 17.2983L25.1326 11.5574L21.138 6.16896C21.0874 6.08502 21.0453 6.00949 21.0116 5.94234C20.9947 5.8752 20.9863 5.80805 20.9863 5.74091C20.9863 5.58983 21.0369 5.46393 21.138 5.36321C21.256 5.24571 21.3908 5.18696 21.5425 5.18696H23.7421C23.9444 5.18696 24.0961 5.23732 24.1972 5.33804C24.2983 5.43875 24.3742 5.53108 24.4247 5.61501L27.2817 9.39192L30.1386 5.61501C30.206 5.53108 30.2819 5.43875 30.3661 5.33804C30.4673 5.23732 30.619 5.18696 30.8212 5.18696H32.9197C33.0714 5.18696 33.1978 5.24571 33.2989 5.36321C33.4169 5.46393 33.4759 5.58144 33.4759 5.71573C33.4759 5.79966 33.459 5.8752 33.4253 5.94234C33.4085 6.00949 33.3748 6.08502 33.3242 6.16896L29.279 11.6077L33.6023 17.2983C33.6697 17.399 33.7119 17.4829 33.7287 17.5501C33.7624 17.6172 33.7793 17.6759 33.7793 17.7263C33.7793 17.8774 33.7203 18.0117 33.6023 18.1292C33.5012 18.2299 33.3748 18.2803 33.2231 18.2803H30.9224C30.737 18.2803 30.5937 18.2383 30.4926 18.1544C30.3914 18.0536 30.3071 17.9613 30.2397 17.8774L27.2058 13.8739L24.1213 17.8774C24.0539 17.9613 23.9696 18.0536 23.8685 18.1544C23.7842 18.2383 23.641 18.2803 23.4387 18.2803H21.2138Z" fill="#343B4E"/>
<path d="M36.0662 22.46V5.79127C36.0662 5.6234 36.1252 5.48072 36.2432 5.36321C36.3611 5.24571 36.5044 5.18696 36.673 5.18696H38.6703C38.8557 5.18696 38.999 5.24571 39.1001 5.36321C39.2181 5.48072 39.2771 5.6234 39.2771 5.79127V6.79844C39.6816 6.26128 40.2125 5.81644 40.8699 5.46393C41.5272 5.11142 42.3447 4.93516 43.3223 4.93516C44.2156 4.93516 44.9909 5.07785 45.6483 5.36321C46.3056 5.64858 46.8534 6.05984 47.2917 6.59701C47.7299 7.11738 48.067 7.73847 48.303 8.46028C48.5389 9.18209 48.6738 9.97944 48.7075 10.8523C48.7243 11.1377 48.7328 11.4315 48.7328 11.7336C48.7328 12.0358 48.7243 12.3379 48.7075 12.6401C48.6906 13.4794 48.5642 14.2599 48.3283 14.9818C48.0923 15.6868 47.7467 16.3079 47.2917 16.845C46.8534 17.3654 46.3056 17.7767 45.6483 18.0788C44.9909 18.381 44.2156 18.532 43.3223 18.532C42.4121 18.532 41.6368 18.3726 40.9963 18.0536C40.3558 17.7179 39.8333 17.2815 39.4288 16.7443V19.7088C39.4288 20.7877 36.0662 23.5323 36.0662 22.46ZM42.3868 15.8379C43.1116 15.8379 43.6762 15.6868 44.0808 15.3846C44.4853 15.0657 44.7718 14.6544 44.9404 14.1508C45.1258 13.6472 45.2353 13.0933 45.2691 12.489C45.3028 11.9854 45.3028 11.4818 45.2691 10.9782C45.2353 10.3739 45.1258 9.81997 44.9404 9.31638C44.7718 8.81279 44.4853 8.40992 44.0808 8.10777C43.6762 7.78883 43.1116 7.62936 42.3868 7.62936C41.6958 7.62936 41.1311 7.78883 40.6929 8.10777C40.2715 8.42671 39.9597 8.83797 39.7574 9.34156C39.572 9.82836 39.4625 10.332 39.4288 10.8523C39.4119 11.1545 39.4035 11.4734 39.4035 11.8091C39.4035 12.1449 39.4119 12.4722 39.4288 12.7911C39.4456 13.2947 39.5636 13.7815 39.7827 14.2515C40.0018 14.7048 40.3221 15.0825 40.7435 15.3846C41.1648 15.6868 41.7126 15.8379 42.3868 15.8379Z" fill="#343B4E"/>
<path d="M57.2342 18.532C55.3633 18.532 53.8801 17.9949 52.7845 16.9206C51.6889 15.8462 51.099 14.3187 51.0147 12.3379C50.9979 12.17 50.9894 11.9602 50.9894 11.7084C50.9894 11.4398 50.9979 11.23 51.0147 11.0789C51.0821 9.81997 51.3687 8.72886 51.8743 7.80562C52.3968 6.88237 53.1132 6.17735 54.0233 5.69055C54.9335 5.18696 56.0038 4.93516 57.2342 4.93516C58.5995 4.93516 59.7456 5.22053 60.6727 5.79127C61.5997 6.34521 62.2992 7.12577 62.7711 8.13295C63.2431 9.12334 63.479 10.2732 63.479 11.5825V12.1113C63.479 12.2792 63.42 12.4218 63.3021 12.5393C63.1841 12.6569 63.0324 12.7156 62.847 12.7156H54.4532C54.4532 12.7156 54.4532 12.7408 54.4532 12.7911C54.4532 12.8415 54.4532 12.8835 54.4532 12.917C54.47 13.5046 54.5796 14.0501 54.7818 14.5537C55.0009 15.0405 55.3128 15.435 55.7173 15.7371C56.1387 16.0393 56.6359 16.1904 57.209 16.1904C57.6809 16.1904 58.077 16.1232 58.3972 15.9889C58.7175 15.8379 58.9787 15.67 59.181 15.4853C59.3833 15.3007 59.5265 15.1496 59.6108 15.0321C59.7625 14.8307 59.8805 14.7132 59.9648 14.6796C60.0659 14.6292 60.2092 14.6041 60.3946 14.6041H62.5689C62.7374 14.6041 62.8723 14.6544 62.9734 14.7551C63.0914 14.8559 63.1419 14.9818 63.1251 15.1328C63.1082 15.4014 62.965 15.7287 62.6953 16.1148C62.4425 16.5009 62.0716 16.8786 61.5828 17.2479C61.094 17.6172 60.4788 17.9277 59.7372 18.1795C59.0124 18.4145 58.1781 18.532 57.2342 18.532ZM54.4532 10.6005H60.0406V10.525C60.0406 9.87033 59.931 9.2996 59.7119 8.81279C59.4928 8.32599 59.1726 7.93991 58.7512 7.65454C58.3298 7.36917 57.8242 7.22649 57.2342 7.22649C56.6443 7.22649 56.1387 7.36917 55.7173 7.65454C55.2959 7.93991 54.9757 8.32599 54.7565 8.81279C54.5543 9.2996 54.4532 9.87033 54.4532 10.525V10.6005Z" fill="#343B4E"/>
<path d="M66.1627 17.6759V5.81644C66.1627 5.63179 66.2217 5.48072 66.3397 5.36321C66.4577 5.24571 66.601 5.18696 66.7695 5.18696H68.8174C68.986 5.18696 69.1292 5.24571 69.2472 5.36321C69.3821 5.48072 69.4495 5.63179 69.4495 5.81644V6.8488C69.8372 6.31164 70.3344 5.90038 70.9412 5.61501C71.5648 5.32964 72.2811 5.18696 73.0902 5.18696H74.1268C74.3122 5.18696 74.4554 5.24571 74.5566 5.36321C74.6746 5.48072 74.7336 5.6234 74.7336 5.79127V7.60418C74.7336 7.77204 74.6746 7.91473 74.5566 8.03223C74.4554 8.14974 74.3122 8.20849 74.1268 8.20849H72.1547C71.3457 8.20849 70.7136 8.4351 70.2585 8.88833C69.8203 9.34156 69.6012 9.96266 69.6012 10.7516V14.0076C69.6012 15.0823 66.1627 18.7599 66.1627 17.6759Z" fill="#343B4E"/>
<path d="M0 13.1446V18.9677C1.91308 18.9677 3.46394 17.4232 3.46394 15.5179V13.1446H0Z" fill="#343B4E"/>
<path d="M15.1031 13.1446V18.9677C16.9332 18.9677 18.4168 17.4902 18.4168 15.6675V13.1446H15.1031Z" fill="#343B4E"/>
<path d="M36.066 19.1974V25.0205C37.9231 25.0205 39.4285 23.5212 39.4285 21.6717V19.1974H36.066Z" fill="#343B4E"/>
<path d="M66.1644 13.1446V18.9677C68.0628 18.9677 69.6017 17.4351 69.6017 15.5445V13.1446H66.1644Z" fill="#343B4E"/>
</svg>
