<svg viewBox="0 0 13 12" fill="none" xmlns="http://www.w3.org/2000/svg">
<path d="M5.62017 0.345362C5.76985 -0.115294 6.42156 -0.115294 6.57123 0.345361L7.6673 3.71872C7.73424 3.92473 7.92622 4.06421 8.14283 4.06421H11.6898C12.1741 4.06421 12.3755 4.68402 11.9837 4.96872L9.11413 7.05357C8.93889 7.18089 8.86556 7.40657 8.9325 7.61258L10.0286 10.9859C10.1782 11.4466 9.651 11.8297 9.25914 11.545L6.3896 9.46011C6.21435 9.33278 5.97705 9.33278 5.80181 9.46011L2.93226 11.545C2.54041 11.8297 2.01317 11.4466 2.16284 10.9859L3.25891 7.61258C3.32585 7.40657 3.25252 7.18089 3.07728 7.05357L0.207729 4.96872C-0.184128 4.68402 0.017259 4.06421 0.501621 4.06421H4.04858C4.26519 4.06421 4.45717 3.92473 4.52411 3.71872L5.62017 0.345362Z" fill="#F9C758"/>
</svg>
