<svg width="20" height="20" viewBox="0 0 20 20" fill="none" xmlns="http://www.w3.org/2000/svg">
<path fill-rule="evenodd" clip-rule="evenodd" d="M20 9.99996L19.9985 9.99997L19.994 10L19.9865 10.0002L19.976 10.0006L19.9626 10.0012L19.9461 10.0021L19.9267 10.0034L19.9044 10.0051L19.8791 10.0072L19.8509 10.0099L19.8198 10.0132L19.7858 10.0171L19.749 10.0217L19.7093 10.0271L19.6669 10.0333L19.6217 10.0404L19.5737 10.0484L19.5231 10.0573L19.4698 10.0673L19.4138 10.0784L19.3553 10.0905L19.2942 10.1039L19.2306 10.1185L19.1645 10.1343L19.0961 10.1514L19.0252 10.1699L18.952 10.1897L18.8766 10.211L18.7989 10.2338L18.719 10.258L18.6371 10.2839L18.5531 10.3112L18.467 10.3402L18.3791 10.3708L18.2892 10.4031L18.1975 10.4371L18.1041 10.4728L18.009 10.5103L17.9122 10.5495L17.8138 10.5905L17.714 10.6333L17.6127 10.6779L17.51 10.7244L17.4061 10.7727L17.3009 10.8229L17.1945 10.8749L17.087 10.9289L16.9785 10.9847L16.8691 11.0423L16.7587 11.1019L16.6475 11.1634L16.5356 11.2267L16.423 11.2919L16.3098 11.359L16.1961 11.428L16.0819 11.4988L15.9674 11.5714L15.8525 11.6459L15.7373 11.7221L15.622 11.8002L15.5066 11.88L15.3911 11.9616L15.2757 12.0448L15.1603 12.1298L15.0452 12.2165L14.9302 12.3048L14.8156 12.3946L14.7013 12.4861L14.5875 12.5791L14.4742 12.6736L14.3614 12.7695L14.2493 12.8669L14.1378 12.9656L14.0271 13.0657L13.9172 13.1671L13.8082 13.2697L13.7001 13.3735L13.5929 13.4784L13.4868 13.5844L13.3818 13.6915L13.2779 13.7995L13.1752 13.9085L13.0738 14.0183L12.9736 14.129L12.8747 14.2404L12.7772 14.3525L12.6812 14.4652L12.5866 14.5785L12.4935 14.6923L12.4019 14.8065L12.3119 14.9211L12.2235 15.036L12.1367 15.1512L12.0516 15.2665L11.9681 15.3819L11.8864 15.4974L11.8065 15.6128L11.7283 15.7281L11.6519 15.8433L11.5773 15.9582L11.5045 16.0728L11.4335 16.187L11.3645 16.3008L11.2972 16.414L11.2319 16.5267L11.1684 16.6387L11.1068 16.7499L11.047 16.8603L10.9892 16.9698L10.9333 17.0784L10.8792 17.186L10.827 17.2924L10.7767 17.3977L10.7282 17.5018L10.6816 17.6046L10.6368 17.706L10.5939 17.806L10.5527 17.9044L10.5134 18.0013L10.4758 18.0966L10.4399 18.1902L10.4058 18.282L10.3734 18.372L10.3426 18.4601L10.3135 18.5463L10.286 18.6305L10.2601 18.7126L10.2357 18.7926L10.2128 18.8705L10.1914 18.9461L10.1714 19.0195L10.1528 19.0905L10.1356 19.1592L10.1197 19.2254L10.105 19.2892L10.0916 19.3505L10.0793 19.4093L10.0682 19.4654L10.0581 19.519L10.0491 19.5698L10.041 19.618L10.0339 19.6634L10.0276 19.7061L10.0222 19.7459L10.0175 19.783L10.0135 19.8172L10.0102 19.8485L10.0074 19.8769L10.0052 19.9025L10.0035 19.925L10.0022 19.9447L10.0013 19.9614L10.0007 19.9751L10.0003 19.9858L10.0001 19.9935L9.99999 19.9983L9.99998 20L9.99997 19.9987L9.99991 19.9945L9.99973 19.9872L9.99938 19.977L9.99879 19.9637L9.99791 19.9475L9.99668 19.9284L9.99503 19.9063L9.99291 19.8812L9.99027 19.8532L9.98704 19.8224L9.98316 19.7886L9.97859 19.752L9.97327 19.7126L9.96713 19.6704L9.96014 19.6254L9.95223 19.5777L9.94335 19.5272L9.93345 19.4741L9.92249 19.4184L9.91041 19.3601L9.89716 19.2992L9.8827 19.2358L9.86698 19.1699L9.84996 19.1016L9.8316 19.0309L9.81185 18.9579L9.79067 18.8827L9.76803 18.8052L9.74389 18.7255L9.7182 18.6437L9.69095 18.5598L9.66209 18.474L9.6316 18.3862L9.59944 18.2964L9.56559 18.2049L9.53002 18.1116L9.49271 18.0166L9.45363 17.92L9.41277 17.8217L9.37011 17.722L9.32562 17.6208L9.2793 17.5183L9.23114 17.4144L9.18111 17.3093L9.12922 17.203L9.07545 17.0956L9.01979 16.9872L8.96226 16.8778L8.90284 16.7675L8.84153 16.6564L8.77835 16.5446L8.71328 16.432L8.64634 16.3189L8.57755 16.2052L8.5069 16.091L8.43441 15.9765L8.36009 15.8616L8.28397 15.7465L8.20606 15.6312L8.12638 15.5158L8.04495 15.4003L7.9618 15.2849L7.87695 15.1695L7.79044 15.0543L7.70228 14.9394L7.61252 14.8247L7.52119 14.7104L7.42832 14.5966L7.33395 14.4832L7.23811 14.3704L7.14085 14.2582L7.04222 14.1467L6.94225 14.0359L6.84099 13.9259L6.73848 13.8168L6.63478 13.7086L6.52994 13.6014L6.424 13.4952L6.31702 13.3901L6.20906 13.2861L6.10017 13.1833L5.9904 13.0818L5.87982 12.9815L5.76848 12.8825L5.65644 12.7849L5.54377 12.6888L5.43053 12.594L5.31678 12.5008L5.20258 12.4091L5.08801 12.319L4.97312 12.2304L4.85798 12.1435L4.74267 12.0583L4.62724 11.9747L4.51178 11.8929L4.39634 11.8128L4.28099 11.7344L4.16582 11.6579L4.05088 11.5831L3.93625 11.5102L3.82199 11.4391L3.70819 11.3699L3.59491 11.3025L3.48222 11.237L3.3702 11.1733L3.25891 11.1116L3.14842 11.0517L3.03882 10.9937L2.93016 10.9376L2.82252 10.8834L2.71596 10.8311L2.61057 10.7806L2.50639 10.732L2.40352 10.6852L2.302 10.6403L2.20192 10.5972L2.10333 10.5559L2.0063 10.5164L1.9109 10.4787L1.81718 10.4427L1.72522 10.4084L1.63508 10.3759L1.5468 10.345L1.46047 10.3157L1.37612 10.2881L1.29383 10.2621L1.21364 10.2375L1.13562 10.2145L1.0598 10.193L0.986256 10.1729L0.915026 10.1542L0.846161 10.1369L0.779708 10.1209L0.715714 10.1061L0.654222 10.0926L0.595275 10.0802L0.538914 10.069L0.485177 10.0589L0.434102 10.0497L0.385724 10.0416L0.340077 10.0344L0.297193 10.0281L0.257101 10.0226L0.219829 10.0178L0.185404 10.0138L0.153849 10.0104L0.125186 10.0076L0.0994355 10.0054L0.0766152 10.0036L0.0567411 10.0023L0.0398271 10.0013L0.0258851 10.0007L0.0149247 10.0003L0.0069537 10.0001L0.00197764 9.99998L0 9.99996L0.00102216 9.99996L0.00504341 9.9999L0.0120609 9.99973L0.0220698 9.9994L0.0350631 9.99883L0.0510316 9.99797L0.0699642 9.99677L0.0918477 9.99516L0.116667 9.99308L0.144404 9.99048L0.17504 9.9873L0.208554 9.98348L0.244922 9.97896L0.284118 9.9737L0.326116 9.96763L0.370887 9.96071L0.418398 9.95287L0.468618 9.94407L0.52151 9.93426L0.57704 9.92338L0.635168 9.91139L0.695853 9.89824L0.759055 9.88387L0.82473 9.86826L0.892831 9.85135L0.963313 9.83309L1.03613 9.81345L1.11122 9.79239L1.18855 9.76987L1.26806 9.74584L1.34968 9.72029L1.43338 9.69316L1.51909 9.66443L1.60675 9.63407L1.69631 9.60204L1.7877 9.56833L1.88086 9.53289L1.97573 9.49572L2.07225 9.45679L2.17035 9.41607L2.26996 9.37355L2.37103 9.32921L2.47348 9.28304L2.57725 9.23502L2.68226 9.18514L2.78845 9.1334L2.89576 9.07977L3.0041 9.02427L3.11341 8.96689L3.22362 8.90762L3.33467 8.84646L3.44646 8.78342L3.55895 8.71851L3.67205 8.65172L3.78569 8.58307L3.89981 8.51257L4.01433 8.44022L4.12918 8.36605L4.24429 8.29007L4.35958 8.2123L4.475 8.13276L4.59047 8.05147L4.70591 7.96846L4.82127 7.88375L4.93647 7.79736L5.05144 7.70934L5.16612 7.6197L5.28045 7.52849L5.39435 7.43574L5.50776 7.34149L5.62062 7.24577L5.73286 7.14862L5.84443 7.05009L5.95526 6.95023L6.06529 6.84907L6.17447 6.74666L6.28274 6.64305L6.39004 6.5383L6.49631 6.43245L6.60151 6.32555L6.70558 6.21766L6.80847 6.10884L6.91013 5.99914L7.01052 5.88862L7.10958 5.77734L7.20728 5.66535L7.30358 5.55273L7.39842 5.43953L7.49177 5.32582L7.5836 5.21166L7.67387 5.09711L7.76254 4.98224L7.84958 4.86712L7.93496 4.75182L8.01865 4.6364L8.10063 4.52094L8.18087 4.40549L8.25935 4.29014L8.33604 4.17495L8.41093 4.05998L8.484 3.94533L8.55524 3.83104L8.62463 3.7172L8.69216 3.60387L8.75782 3.49114L8.82161 3.37905L8.88352 3.2677L8.94354 3.15715L9.00167 3.04747L9.05792 2.93874L9.11229 2.83101L9.16478 2.72437L9.2154 2.61887L9.26416 2.5146L9.31107 2.41162L9.35614 2.30999L9.39938 2.20979L9.44081 2.11108L9.48045 2.01393L9.51832 1.91839L9.55445 1.82454L9.58884 1.73244L9.62154 1.64214L9.65256 1.55372L9.68193 1.46723L9.70969 1.38272L9.73587 1.30026L9.7605 1.2199L9.78362 1.1417L9.80526 1.06571L9.82546 0.991984L9.84426 0.920567L9.8617 0.851512L9.87783 0.784865L9.89268 0.720673L9.90631 0.658981L9.91876 0.599829L9.93008 0.54326L9.94031 0.489313L9.94951 0.438025L9.95772 0.389431L9.965 0.343565L9.9714 0.300459L9.97698 0.260144L9.98178 0.222647L9.98587 0.187994L9.9893 0.156209L9.99213 0.127315L9.99441 0.101332L9.9962 0.0782773L9.99756 0.058168L9.99855 0.0410178L9.99922 0.0268387L9.99964 0.0156405L9.99987 0.00743123L9.99996 0.0022165L9.99998 0L9.99999 0.000783281L10 0.00456579L10.0002 0.0113449L10.0005 0.0211158L10.0011 0.0338718L10.0019 0.0496038L10.0031 0.0683009L10.0046 0.08995L10.0067 0.114536L10.0092 0.142042L10.0124 0.172448L10.0161 0.205733L10.0206 0.241875L10.0258 0.280847L10.0318 0.322623L10.0387 0.367174L10.0464 0.414468L10.0551 0.464474L10.0649 0.517155L10.0757 0.572476L10.0876 0.630399L10.1006 0.690882L10.1149 0.753886L10.1304 0.819365L10.1472 0.887275L10.1653 0.95757L10.1849 1.0302L10.2058 1.10512L10.2282 1.18227L10.2521 1.2616L10.2776 1.34306L10.3046 1.4266L10.3332 1.51215L10.3634 1.59966L10.3953 1.68907L10.4289 1.78031L10.4642 1.87334L10.5012 1.96807L10.54 2.06446L10.5806 2.16244L10.6229 2.26194L10.6671 2.36289L10.7132 2.46523L10.761 2.5689L10.8108 2.67381L10.8624 2.77992L10.9158 2.88713L10.9712 2.9954L11.0284 3.10464L11.0875 3.21478L11.1485 3.32576L11.2114 3.4375L11.2762 3.54993L11.3428 3.66298L11.4113 3.77659L11.4817 3.89067L11.5539 4.00516L11.6279 4.11998L11.7037 4.23507L11.7814 4.35036L11.8608 4.46577L11.9419 4.58124L12.0248 4.69669L12.1094 4.81205L12.1956 4.92727L12.2835 5.04226L12.373 5.15697L12.4641 5.27132L12.5568 5.38526L12.6509 5.49871L12.7465 5.61162L12.8435 5.72392L12.9419 5.83554L13.0417 5.94643L13.1428 6.05653L13.2451 6.16578L13.3486 6.27412L13.4533 6.3815L13.559 6.48786L13.6658 6.59314L13.7736 6.6973L13.8824 6.80029L13.992 6.90205L14.1025 7.00254L14.2137 7.10172L14.3256 7.19953L14.4382 7.29593L14.5514 7.39089L14.665 7.48437L14.7792 7.57632L14.8937 7.66671L15.0085 7.75551L15.1236 7.84268L15.2389 7.92819L15.3543 8.01202L15.4698 8.09414L15.5852 8.17452L15.7006 8.25314L15.8158 8.32998L15.9308 8.40501L16.0455 8.47823L16.1598 8.54961L16.2737 8.61915L16.387 8.68683L16.4998 8.75264L16.612 8.81658L16.7234 8.87863L16.834 8.9388L16.9438 8.99709L17.0526 9.05349L17.1604 9.10801L17.2671 9.16065L17.3727 9.21142L17.4771 9.26033L17.5801 9.30738L17.6819 9.35259L17.7822 9.39598L17.881 9.43756L17.9783 9.47734L18.074 9.51535L18.168 9.55161L18.2602 9.58614L18.3507 9.61897L18.4392 9.65013L18.5259 9.67963L18.6105 9.70752L18.6932 9.73383L18.7737 9.75858L18.8521 9.78181L18.9282 9.80357L19.0021 9.82388L19.0737 9.84279L19.143 9.86034L19.2098 9.87657L19.2742 9.89153L19.3361 9.90525L19.3955 9.91779L19.4522 9.9292L19.5064 9.93951L19.5579 9.94879L19.6067 9.95708L19.6528 9.96444L19.6961 9.97091L19.7367 9.97655L19.7744 9.98141L19.8093 9.98555L19.8413 9.98903L19.8704 9.99191L19.8966 9.99423L19.9199 9.99605L19.9403 9.99744L19.9576 9.99846L19.9721 9.99916L19.9835 9.9996L19.9919 9.99984L19.9974 9.99994L19.9998 9.99996L20 9.99996Z" fill="#F9C758"/>
</svg>
